<svg xmlns="http://www.w3.org/2000/svg" xmlns:xlink="http://www.w3.org/1999/xlink" width="50" zoomAndPan="magnify" viewBox="0 0 37.5 37.499999" height="50" preserveAspectRatio="xMidYMid meet" version="1.0"><defs><clipPath id="2be23bbcfa"><path d="M 2.25 2 L 35.25 2 L 35.25 37.007812 L 2.25 37.007812 Z M 2.25 2 " clip-rule="nonzero"/></clipPath><clipPath id="4ae6de8e5e"><path d="M 2.25 9 L 8 9 L 8 18 L 2.25 18 Z M 2.25 9 " clip-rule="nonzero"/></clipPath></defs><path fill="#000000" d="M 29.9375 12.167969 L 27.523438 12.886719 C 26.070312 13.320312 25.144531 13.628906 25.183594 13.667969 C 25.222656 13.703125 26.152344 14.167969 27.253906 14.707031 L 29.226562 16.300781 L 34.726562 14.132812 C 34.726562 14.109375 34.199219 13.878906 33.558594 13.625 C 32.917969 13.371094 31.839844 12.9375 31.164062 12.664062 Z M 29.9375 12.167969 " fill-opacity="1" fill-rule="nonzero"/><g clip-path="url(#2be23bbcfa)"><path fill="#000000" d="M 20.765625 2.890625 C 20.726562 2.898438 20.683594 2.910156 20.644531 2.921875 L 2.414062 9.019531 C 2.375 9.082031 2.328125 9.359375 2.296875 9.425781 C 2.28125 9.46875 2.28125 9.496094 2.277344 9.519531 C 2.269531 9.5625 2.265625 9.585938 2.265625 9.605469 L 2.265625 9.667969 C 2.265625 9.691406 2.269531 9.699219 2.269531 9.710938 C 2.273438 9.734375 2.28125 9.753906 2.28125 9.777344 C 2.289062 9.824219 2.300781 9.882812 2.3125 9.960938 L 5.5 27.773438 C 5.527344 27.921875 5.609375 28.066406 5.730469 28.164062 L 5.925781 28.324219 C 9.648438 31.21875 13.082031 34.3125 16.808594 37.230469 C 16.863281 37.269531 16.902344 37.304688 16.9375 37.332031 C 16.957031 37.347656 16.96875 37.355469 16.992188 37.371094 C 17.003906 37.378906 17.015625 37.390625 17.042969 37.40625 C 17.058594 37.414062 17.082031 37.421875 17.117188 37.4375 C 17.152344 37.453125 17.175781 37.492188 17.382812 37.488281 L 17.382812 37.496094 L 17.394531 37.496094 L 17.394531 37.488281 C 17.410156 37.484375 17.574219 37.464844 17.648438 37.433594 C 17.722656 37.398438 17.777344 37.351562 17.820312 37.308594 L 35.089844 27.824219 C 35.234375 27.636719 35.203125 27.601562 35.210938 27.5625 C 35.21875 27.527344 35.222656 27.507812 35.222656 27.488281 C 35.230469 27.453125 35.230469 27.425781 35.230469 27.398438 C 35.234375 27.339844 35.234375 27.277344 35.238281 27.199219 L 34.792969 14.648438 L 34.765625 14.117188 L 34.414062 14.1875 L 29.238281 16.210938 C 29.164062 15.929688 29.15625 15.886719 29.226562 15.753906 L 31.503906 12.871094 C 31.488281 12.832031 33.511719 11.863281 33.5 11.824219 C 33.3125 11.246094 34.074219 11.289062 34.0625 10.660156 L 33.605469 7.226562 L 21.019531 2.917969 C 20.9375 2.890625 20.851562 2.886719 20.765625 2.898438 Z M 20.765625 2.890625 " fill-opacity="1" fill-rule="nonzero"/></g><path fill="#000000" d="M 20.835938 0 C 20.8125 0.00390625 20.792969 0.0078125 20.773438 0.0117188 L 16.96875 1.414062 C 16.882812 1.445312 16.835938 1.503906 16.820312 1.59375 C 16.808594 1.683594 16.835938 1.753906 16.90625 1.808594 L 19.484375 3.859375 C 19.546875 3.910156 19.617188 3.921875 19.691406 3.898438 L 23.429688 2.679688 C 23.515625 2.65625 23.566406 2.597656 23.585938 2.511719 C 23.605469 2.425781 23.582031 2.351562 23.515625 2.292969 L 21.007812 0.0546875 C 20.957031 0.0117188 20.902344 -0.00390625 20.835938 0 Z M 20.835938 0 " fill-opacity="1" fill-rule="nonzero"/><path fill="#000000" d="M 11.195312 6.535156 L 11.542969 10.300781 L 7.828125 7.796875 L 8.085938 4.304688 Z M 11.195312 6.535156 " fill-opacity="1" fill-rule="nonzero"/><path fill="#000000" d="M 17.5 4.25 L 11.195312 6.535156 L 11.542969 10.300781 L 17.855469 8.015625 Z M 17.5 4.25 " fill-opacity="1" fill-rule="nonzero"/><path fill="#000000" d="M 17.945312 9.347656 L 18.285156 12.992188 L 13.835938 11.875 L 13.5 8.230469 Z M 17.945312 9.347656 " fill-opacity="1" fill-rule="nonzero"/><path fill="#000000" d="M 17.945312 9.347656 L 18.285156 12.992188 L 22.84375 9.964844 L 22.503906 6.320312 Z M 17.945312 9.347656 " fill-opacity="1" fill-rule="nonzero"/><path fill="#000000" d="M 16.839844 1.65625 L 19.632812 3.679688 L 19.949219 6.96875 L 16.265625 4.59375 Z M 16.839844 1.65625 " fill-opacity="1" fill-rule="nonzero"/><path fill="#000000" d="M 19.632812 3.679688 L 19.949219 6.964844 L 22.496094 5.550781 L 23.566406 2.449219 Z M 19.632812 3.679688 " fill-opacity="1" fill-rule="nonzero"/><path fill="#000000" d="M 24.21875 2.847656 C 24.203125 2.851562 24.1875 2.855469 24.167969 2.859375 L 20.230469 4.304688 C 20.136719 4.339844 20.082031 4.40625 20.070312 4.507812 C 20.058594 4.605469 20.097656 4.683594 20.179688 4.738281 L 23.515625 6.957031 C 23.585938 7.003906 23.664062 7.007812 23.742188 6.972656 L 28.152344 5.183594 C 28.246094 5.140625 28.292969 5.070312 28.296875 4.96875 C 28.300781 4.867188 28.257812 4.792969 28.164062 4.746094 L 24.359375 2.875 C 24.316406 2.851562 24.269531 2.84375 24.21875 2.847656 Z M 24.21875 2.847656 " fill-opacity="1" fill-rule="nonzero"/><path fill="#000000" d="M 14.871094 2.886719 C 14.855469 2.886719 14.839844 2.886719 14.824219 2.890625 L 8.316406 4.007812 C 8.089844 4.050781 8 4.394531 8.179688 4.539062 L 11.007812 6.769531 C 11.089844 6.835938 11.203125 6.851562 11.300781 6.820312 L 17.5625 5.199219 C 17.675781 5.160156 17.757812 5.042969 17.757812 4.921875 C 17.761719 4.800781 17.679688 4.683594 17.566406 4.640625 L 14.988281 2.910156 C 14.949219 2.894531 14.910156 2.886719 14.871094 2.886719 Z M 14.871094 2.886719 " fill-opacity="1" fill-rule="nonzero"/><path fill="#000000" d="M 28.058594 4.957031 L 28.375 8.363281 L 23.964844 10.152344 L 23.652344 6.75 Z M 28.058594 4.957031 " fill-opacity="1" fill-rule="nonzero"/><path fill="#000000" d="M 28.855469 4.015625 C 28.820312 4.015625 28.785156 4.027344 28.753906 4.046875 L 24.707031 6.511719 C 24.617188 6.5625 24.582031 6.636719 24.601562 6.738281 C 24.617188 6.839844 24.675781 6.898438 24.773438 6.917969 L 28.988281 7.855469 C 29.042969 7.871094 29.097656 7.863281 29.148438 7.832031 L 33.851562 5.152344 C 33.941406 5.097656 33.976562 5.023438 33.957031 4.921875 C 33.9375 4.820312 33.875 4.761719 33.773438 4.746094 L 28.898438 4.023438 C 28.886719 4.019531 28.871094 4.015625 28.855469 4.015625 Z M 28.855469 4.015625 " fill-opacity="1" fill-rule="nonzero"/><path fill="#000000" d="M 29.035156 7.636719 L 33.753906 4.878906 C 33.828125 4.890625 33.882812 4.808594 33.941406 4.914062 L 34.085938 11.320312 C 34.089844 11.550781 34.105469 11.707031 33.839844 11.824219 L 29.597656 14.546875 Z M 29.035156 7.636719 " fill-opacity="1" fill-rule="nonzero"/><path fill="#ffffff" d="M 20.851562 0.234375 L 17.050781 1.632812 L 19.625 3.679688 L 23.363281 2.46875 Z M 20.851562 0.234375 " fill-opacity="1" fill-rule="nonzero"/><g clip-path="url(#4ae6de8e5e)"><path fill="#ffffff" d="M 2.917969 9.617188 C 2.910156 9.628906 3.144531 10.980469 3.4375 12.621094 C 3.902344 15.203125 3.988281 15.621094 4.101562 15.707031 C 4.253906 15.824219 6.988281 17.222656 7.054688 17.21875 C 7.082031 17.214844 6.894531 15.871094 6.640625 14.234375 C 6.386719 12.59375 6.164062 11.214844 6.140625 11.167969 C 6.101562 11.089844 2.953125 9.570312 2.917969 9.617188 Z M 2.917969 9.617188 " fill-opacity="1" fill-rule="nonzero"/></g><path fill="#ffffff" d="M 6.65625 11.351562 L 6.671875 11.578125 C 6.679688 11.703125 6.894531 13.09375 7.148438 14.664062 L 7.609375 17.519531 L 9.335938 18.398438 C 10.285156 18.882812 11.066406 19.273438 11.070312 19.265625 C 11.074219 19.261719 10.902344 17.867188 10.683594 16.164062 L 10.292969 13.070312 L 8.476562 12.210938 Z M 6.65625 11.351562 " fill-opacity="1" fill-rule="nonzero"/><path fill="#ffffff" d="M 28.28125 10.179688 C 27.867188 10.28125 21.972656 12.503906 21.902344 12.589844 C 21.878906 12.613281 21.972656 13.667969 22.113281 14.929688 C 22.253906 16.195312 22.402344 17.605469 22.445312 18.070312 C 22.488281 18.53125 22.546875 18.90625 22.578125 18.898438 C 22.613281 18.894531 24.007812 18.324219 25.679688 17.632812 C 27.355469 16.941406 28.734375 16.359375 28.75 16.339844 C 28.796875 16.277344 28.359375 10.214844 28.304688 10.175781 C 28.300781 10.171875 28.292969 10.171875 28.28125 10.179688 Z M 28.28125 10.179688 " fill-opacity="1" fill-rule="nonzero"/><path fill="#ffffff" d="M 10.742188 13.285156 L 11.160156 16.375 C 11.472656 18.695312 11.597656 19.484375 11.667969 19.546875 C 11.785156 19.648438 15.324219 21.460938 15.394531 21.457031 C 15.425781 21.453125 15.285156 20.324219 15.089844 18.945312 C 14.894531 17.566406 14.710938 16.136719 14.683594 15.765625 L 14.632812 15.097656 L 14.441406 15.054688 C 14.335938 15.03125 13.550781 14.664062 12.695312 14.242188 C 11.839844 13.816406 11.050781 13.425781 10.941406 13.375 Z M 10.742188 13.285156 " fill-opacity="1" fill-rule="nonzero"/><path fill="#ffffff" d="M 21.335938 12.8125 C 21.019531 12.855469 15.265625 15.105469 15.199219 15.210938 C 15.144531 15.300781 15.234375 16.054688 15.574219 18.453125 C 15.820312 20.171875 16.046875 21.578125 16.074219 21.574219 C 16.101562 21.570312 17.453125 21.019531 19.074219 20.351562 C 20.695312 19.679688 22.046875 19.105469 22.070312 19.070312 C 22.09375 19.03125 21.972656 17.753906 21.796875 16.230469 C 21.625 14.703125 21.476562 13.304688 21.46875 13.125 C 21.460938 12.84375 21.441406 12.796875 21.335938 12.8125 Z M 21.335938 12.8125 " fill-opacity="1" fill-rule="nonzero"/><path fill="#ffffff" d="M 4.15625 16.335938 C 4.113281 16.394531 5.011719 21.503906 5.113281 21.796875 C 5.171875 21.96875 5.445312 22.175781 6.640625 22.929688 L 8.09375 23.847656 L 7.976562 22.898438 C 7.910156 22.375 7.703125 21.015625 7.511719 19.878906 L 7.164062 17.8125 L 5.675781 17.050781 C 4.855469 16.632812 4.171875 16.3125 4.15625 16.335938 Z M 4.15625 16.335938 " fill-opacity="1" fill-rule="nonzero"/><path fill="#ffffff" d="M 7.703125 18.113281 C 7.699219 18.125 7.902344 19.496094 8.160156 21.152344 C 8.519531 23.476562 8.648438 24.179688 8.726562 24.234375 C 8.78125 24.277344 9.539062 24.761719 10.414062 25.3125 L 12 26.316406 L 11.832031 24.832031 C 11.738281 24.019531 11.554688 22.5625 11.421875 21.597656 L 11.179688 19.847656 L 9.449219 18.96875 C 8.496094 18.480469 7.710938 18.097656 7.703125 18.113281 Z M 7.703125 18.113281 " fill-opacity="1" fill-rule="nonzero"/><path fill="#ffffff" d="M 34.359375 14.574219 C 34.277344 14.585938 29.292969 16.621094 29.261719 16.65625 C 29.25 16.671875 29.683594 23.121094 29.714844 23.34375 C 29.722656 23.414062 29.765625 23.449219 29.8125 23.425781 C 29.855469 23.402344 30.902344 22.945312 32.132812 22.414062 C 33.367188 21.882812 34.410156 21.417969 34.453125 21.382812 C 34.507812 21.335938 34.519531 20.289062 34.484375 18.164062 C 34.457031 16.433594 34.433594 14.914062 34.433594 14.789062 C 34.4375 14.640625 34.414062 14.566406 34.359375 14.574219 Z M 34.359375 14.574219 " fill-opacity="1" fill-rule="nonzero"/><path fill="#ffffff" d="M 28.785156 16.847656 L 25.722656 18.109375 C 24.035156 18.804688 22.644531 19.386719 22.628906 19.40625 C 22.601562 19.441406 23.15625 24.699219 23.289062 25.636719 L 23.371094 26.222656 L 26.289062 24.953125 C 27.894531 24.257812 29.226562 23.664062 29.246094 23.640625 C 29.277344 23.597656 28.886719 17.597656 28.820312 17.097656 Z M 28.785156 16.847656 " fill-opacity="1" fill-rule="nonzero"/><path fill="#ffffff" d="M 11.667969 20.113281 C 11.652344 20.113281 11.847656 21.597656 12.109375 23.410156 L 12.585938 26.703125 L 14.472656 27.886719 L 16.363281 29.074219 L 16.277344 28.1875 C 16.234375 27.699219 16.03125 26.113281 15.828125 24.660156 L 15.460938 22.023438 L 13.578125 21.066406 C 12.546875 20.539062 11.683594 20.109375 11.667969 20.113281 Z M 11.667969 20.113281 " fill-opacity="1" fill-rule="nonzero"/><path fill="#ffffff" d="M 22.136719 19.628906 C 22.105469 19.605469 16.148438 22.027344 16.121094 22.074219 C 16.117188 22.082031 16.3125 23.640625 16.558594 25.535156 C 16.992188 28.9375 17 28.980469 17.125 28.929688 C 17.195312 28.898438 18.523438 28.324219 20.074219 27.648438 L 22.894531 26.425781 L 22.835938 25.699219 C 22.726562 24.433594 22.175781 19.660156 22.136719 19.628906 Z M 22.136719 19.628906 " fill-opacity="1" fill-rule="nonzero"/><path fill="#ffffff" d="M 5.269531 22.703125 C 5.265625 22.703125 5.265625 22.707031 5.265625 22.707031 C 5.265625 22.761719 5.460938 23.898438 5.703125 25.234375 L 6.140625 27.660156 L 6.339844 27.824219 L 7.789062 29.015625 L 9.046875 30.046875 L 8.886719 28.753906 C 8.796875 28.042969 8.605469 26.785156 8.460938 25.960938 L 8.199219 24.460938 L 6.734375 23.535156 C 5.910156 23.015625 5.308594 22.671875 5.269531 22.703125 Z M 5.269531 22.703125 " fill-opacity="1" fill-rule="nonzero"/><path fill="#ffffff" d="M 8.792969 24.835938 L 8.953125 26.117188 C 9.042969 26.828125 9.234375 28.113281 9.386719 28.976562 L 9.65625 30.546875 L 11.285156 31.878906 L 12.914062 33.214844 L 12.828125 32.3125 C 12.78125 31.820312 12.605469 30.410156 12.433594 29.179688 L 12.121094 26.945312 Z M 8.792969 24.835938 " fill-opacity="1" fill-rule="nonzero"/><path fill="#ffffff" d="M 34.410156 21.984375 C 34.195312 22.03125 33.601562 22.277344 32.128906 22.917969 C 30.828125 23.484375 29.765625 23.949219 29.761719 23.957031 C 29.753906 23.964844 29.832031 25.121094 29.929688 26.523438 C 30.03125 27.925781 30.117188 29.257812 30.125 29.484375 C 30.140625 29.867188 30.148438 29.890625 30.261719 29.824219 C 30.328125 29.785156 31.316406 29.246094 32.453125 28.625 C 33.589844 28.003906 34.542969 27.464844 34.574219 27.425781 C 34.628906 27.351562 34.578125 22.183594 34.519531 22 C 34.511719 21.976562 34.480469 21.96875 34.410156 21.984375 Z M 34.410156 21.984375 " fill-opacity="1" fill-rule="nonzero"/><path fill="#ffffff" d="M 29.277344 24.183594 C 29.230469 24.167969 23.457031 26.671875 23.421875 26.722656 C 23.40625 26.742188 23.535156 27.976562 23.703125 29.46875 C 23.871094 30.957031 24.023438 32.398438 24.042969 32.675781 C 24.058594 32.949219 24.089844 33.171875 24.113281 33.167969 C 24.132812 33.164062 25.402344 32.480469 26.925781 31.644531 L 29.703125 30.128906 L 29.707031 29.90625 C 29.714844 29.488281 29.320312 24.199219 29.277344 24.183594 Z M 29.277344 24.183594 " fill-opacity="1" fill-rule="nonzero"/><path fill="#ffffff" d="M 12.652344 27.296875 C 12.617188 27.289062 12.792969 28.726562 13.046875 30.488281 L 13.503906 33.699219 L 15.417969 35.273438 C 16.46875 36.136719 17.351562 36.84375 17.371094 36.84375 C 17.394531 36.84375 17.261719 35.636719 17.078125 34.164062 C 16.890625 32.6875 16.683594 31.082031 16.613281 30.589844 L 16.480469 29.695312 L 14.597656 28.503906 C 13.558594 27.847656 12.683594 27.304688 12.652344 27.296875 Z M 12.652344 27.296875 " fill-opacity="1" fill-rule="nonzero"/><path fill="#ffffff" d="M 22.949219 26.941406 C 22.925781 26.921875 21.1875 27.664062 17.191406 29.40625 C 17.085938 29.449219 17.109375 29.679688 17.578125 32.96875 C 17.855469 34.910156 18.105469 36.464844 18.136719 36.449219 L 20.945312 34.914062 L 23.699219 33.410156 L 23.644531 32.996094 C 23.613281 32.769531 23.449219 31.320312 23.285156 29.773438 C 23.117188 28.230469 22.96875 26.953125 22.953125 26.941406 Z M 22.949219 26.941406 " fill-opacity="1" fill-rule="nonzero"/><path fill="#ffffff" d="M 8.492188 7.433594 L 6.117188 8.179688 C 4.808594 8.589844 3.726562 8.945312 3.707031 8.96875 C 3.691406 8.988281 3.726562 9.027344 3.789062 9.054688 C 3.847656 9.078125 4.472656 9.378906 5.171875 9.71875 C 5.871094 10.058594 6.488281 10.328125 6.546875 10.324219 C 6.601562 10.320312 7.691406 9.941406 8.96875 9.488281 C 10.242188 9.03125 11.308594 8.636719 11.332031 8.609375 C 11.355469 8.582031 10.722656 8.304688 9.933594 7.996094 Z M 8.492188 7.433594 " fill-opacity="1" fill-rule="nonzero"/><path fill="#ffffff" d="M 16.925781 10.738281 L 14.351562 11.777344 C 12.9375 12.347656 11.777344 12.832031 11.785156 12.851562 C 11.796875 12.90625 14.953125 14.421875 15.03125 14.410156 C 15.070312 14.402344 16.363281 13.921875 17.90625 13.339844 C 19.445312 12.753906 20.714844 12.265625 20.726562 12.253906 C 20.734375 12.238281 19.882812 11.894531 18.835938 11.484375 Z M 16.925781 10.738281 " fill-opacity="1" fill-rule="nonzero"/><path fill="#ffffff" d="M 11.957031 8.898438 C 11.878906 8.925781 10.789062 9.316406 9.53125 9.765625 C 8.273438 10.214844 7.214844 10.59375 7.179688 10.609375 C 7.144531 10.628906 8.023438 11.078125 9.128906 11.605469 L 11.144531 12.570312 L 13.121094 11.773438 L 15.679688 10.75 C 15.996094 10.621094 16.226562 10.496094 16.191406 10.472656 C 16.160156 10.449219 15.226562 10.070312 14.113281 9.636719 C 12.734375 9.09375 12.050781 8.859375 11.957031 8.898438 Z M 11.957031 8.898438 " fill-opacity="1" fill-rule="nonzero"/><path fill="#ffffff" d="M 17.992188 5.738281 L 13.496094 8.230469 L 17.941406 9.34375 L 22.503906 6.320312 Z M 17.992188 5.738281 " fill-opacity="1" fill-rule="nonzero"/><path fill="#ffffff" d="M 24.257812 3.089844 L 20.316406 4.535156 L 23.652344 6.75 L 28.0625 4.960938 Z M 24.257812 3.089844 " fill-opacity="1" fill-rule="nonzero"/><path fill="#ffffff" d="M 14.875 3.191406 L 8.367188 4.300781 L 11.195312 6.535156 L 17.480469 5.089844 Z M 14.875 3.191406 " fill-opacity="1" fill-rule="nonzero"/><path fill="#ffffff" d="M 28.871094 4.238281 L 24.820312 6.703125 L 29.035156 7.636719 L 33.742188 4.960938 Z M 28.871094 4.238281 " fill-opacity="1" fill-rule="nonzero"/><path fill="#ffffff" d="M 23.730469 8.007812 L 20.683594 9.230469 C 19.007812 9.902344 17.640625 10.46875 17.644531 10.492188 C 17.644531 10.511719 18.5 10.863281 19.539062 11.269531 L 21.429688 12.007812 L 24.597656 10.8125 C 26.335938 10.15625 27.769531 9.601562 27.78125 9.585938 C 27.796875 9.570312 26.890625 9.207031 25.769531 8.78125 Z M 23.730469 8.007812 " fill-opacity="1" fill-rule="nonzero"/><path fill="#ffffff" d="M 33.769531 5.53125 L 29.128906 8.226562 L 29.601562 14.226562 L 33.851562 11.511719 L 33.765625 5.53125 Z M 33.769531 5.53125 " fill-opacity="1" fill-rule="nonzero"/></svg>