<svg width="547" height="499" viewBox="0 0 547 499" fill="none" xmlns="http://www.w3.org/2000/svg">
<path d="M90.6821 397.488C84.6834 414.188 82.4659 451.297 121.585 466.135" stroke="black" stroke-width="5" stroke-linecap="round"/>
<path d="M472.436 226.319C488.93 232.934 518.203 255.923 503.339 294.966" stroke="black" stroke-width="5" stroke-linecap="round"/>
<path d="M62.2051 392.382C55.3357 414.076 54.5774 464.126 106.5 490.775" stroke="black" stroke-width="5" stroke-linecap="round"/>
<path d="M484.083 203.222C504.897 212.503 542.896 245.177 528.378 301.616" stroke="black" stroke-width="5" stroke-linecap="round"/>
<path d="M334.213 431.626C359.008 420.509 370.881 392.485 362.308 367.31C361.418 364.696 358.431 363.575 355.911 364.704L269.67 403.373C267.15 404.503 266.006 407.476 267.373 409.876C280.54 432.992 309.418 442.744 334.213 431.626Z" fill="black"/>
<path d="M159.318 44.952C146.479 50.7087 139.644 64.3208 141.951 77.5515C142.566 81.0777 146.903 81.8679 149.668 79.5957C162.297 69.2196 179.84 62.9995 191.526 60.8885C195.095 60.2437 197.441 56.3312 195.164 53.5089C186.766 43.1023 172.101 39.22 159.318 44.952Z" fill="black"/>
<path d="M370.793 168.827C375.673 179.67 377.353 185.074 386.634 205.692C397.48 229.784 406.101 240.889 449.526 255.709C475.348 264.521 481.349 289.012 464.47 300.012C464.446 300.027 464.421 300.041 464.396 300.052L148.152 441.848C148.108 441.868 148.061 441.882 148.013 441.889C130.723 444.491 111.444 427.673 124.779 401.318C138.133 374.926 141.177 348.056 130.476 320.547C122.364 299.695 102.662 252.535 95.1875 230.948C71.3297 145.065 137.136 93.6814 173.022 78.7248C212.216 61.1511 245.264 61.0694 256.889 63.2253C286.891 66.3311 308.44 78.1677 325.092 94.8248" stroke="black" stroke-width="5" stroke-linecap="round"/>
<path d="M255.736 120.63L430.573 90.9907C431.56 90.8233 432.153 92.0502 431.409 92.7201L349.653 166.268C349.579 166.335 349.502 166.388 349.411 166.426C342.369 169.396 314.197 158.23 299.916 151.804C299.355 151.552 298.707 151.861 298.54 152.452C295.051 164.817 290.73 176.32 288.689 181.306C288.511 181.741 288.041 181.998 287.659 181.724C283.313 178.612 282.783 155.108 283.099 142.377C283.112 141.863 282.737 141.432 282.23 141.346C271.56 139.549 256.729 129.962 250.495 125.268" stroke="black" stroke-width="5" stroke-linecap="round"/>
<path d="M299.522 151.935C317.762 143.297 363.905 121.661 402.558 104.226" stroke="black" stroke-width="5" stroke-linecap="round"/>
<path d="M288.225 182.043L322.149 161.959" stroke="black" stroke-width="5" stroke-linecap="round"/>
<path d="M295.744 134.377L342.238 119.304" stroke="black" stroke-width="5" stroke-linecap="round"/>
</svg>
