<svg width="901" height="776" viewBox="0 0 901 776" fill="none" xmlns="http://www.w3.org/2000/svg">
<path d="M700.973 4.01047L625.449 300.064C625.313 300.596 625.632 301.138 626.164 301.278L635.788 303.811C636.324 303.952 636.872 303.63 637.011 303.093L713.155 7.5806C713.289 7.06058 712.988 6.52756 712.474 6.37325L702.229 3.29983C701.685 3.13643 701.114 3.45948 700.973 4.01047Z" stroke="black" stroke-width="5" stroke-linecap="round"/>
<path d="M312.459 407.332C310.052 223.223 356.434 162.879 382.458 154.499C384.003 154.001 385.646 154.471 386.884 155.52C400.654 167.177 464.125 217.508 460.37 278C460.37 356.46 401.989 439.09 384.959 470.717C367.929 502.345 314.609 499.303 290.078 493.829C217.497 469.298 77.4457 412.694 97.8817 382.526C117.602 353.416 240.469 388.792 305.709 412.256C309.025 413.448 312.505 410.856 312.459 407.332Z" fill="black"/>
<path d="M471.37 272.5C491.37 279 510.37 259 518.37 249" stroke="black" stroke-width="5" stroke-linecap="round"/>
<path d="M101.537 356.691C92.6167 348.176 70.1533 335.16 51.6636 351.217C33.1739 367.274 14.7652 391.156 7.87212 401.091C3.0064 408.997 -2.46753 424.203 14.5625 421.77C35.85 418.729 49.8391 391.967 68.0855 394.4" stroke="black" stroke-width="5" stroke-linecap="round"/>
<path d="M287.09 376.427C292.069 360.854 304.814 334.511 313.965 316.71C315.862 313.02 321.095 313.193 322.634 317.046C339.09 358.241 352.479 425.552 296.159 425.101C220.132 424.493 97.8812 342.992 136.199 328.395C165.182 317.354 239.586 355.829 278.798 379.762C281.86 381.631 285.997 379.843 287.09 376.427Z" fill="black"/>
<path d="M138.024 321.35C127.926 311.892 102.659 293.97 82.3706 297.942C57.0097 302.907 6.99237 338.374 23.1952 345.467C39.398 352.56 63.2133 335.086 93.624 335.086" stroke="black" stroke-width="5" stroke-linecap="round"/>
<path d="M338.735 210.357C292.274 192.191 186.883 204.159 189.15 337.518" stroke="black" stroke-width="5" stroke-linecap="round"/>
<path d="M429.967 337.518V443.576C429.967 460.074 425.709 488.356 391.041 488.356" stroke="black" stroke-width="5" stroke-linecap="round"/>
<path d="M323.407 499.859L429.336 488.423C429.754 488.378 430.194 488.387 430.609 488.454C463.292 493.747 453.534 533.971 429.966 533.971H184.778C184.028 533.971 183.264 533.796 182.597 533.455C152.407 518.01 169.888 484.747 190.937 488.355L322.434 499.869C322.758 499.898 323.084 499.894 323.407 499.859Z" stroke="black" stroke-width="5" stroke-linecap="round"/>
<path d="M198.999 534.58L188.253 695.899C188.06 698.784 190.349 701.231 193.242 701.231H198.495C200.926 701.231 203.004 699.483 203.421 697.088L231.689 534.58" stroke="black" stroke-width="5" stroke-linecap="round"/>
<path d="M418.865 534.58L429.612 695.899C429.804 698.784 427.515 701.231 424.623 701.231H419.369C416.939 701.231 414.86 699.483 414.443 697.088L386.175 534.58" stroke="black" stroke-width="5" stroke-linecap="round"/>
<path d="M191.547 455.512C190.128 465.852 192.885 486.288 215.267 485.315" stroke="black" stroke-width="5" stroke-linecap="round"/>
<path d="M393.474 150.797C407.463 139.24 446.51 120.994 510.251 138.024" stroke="black" stroke-width="5" stroke-linecap="round"/>
<path d="M493.829 134.375C516.131 108.424 584.697 61.6321 680.551 82.0681" stroke="black" stroke-width="5" stroke-linecap="round"/>
<path d="M623.379 128.901C571.478 147.958 485.248 204.107 545.528 283.995C591.42 344.817 606.349 294.335 587.494 245.678C584.453 235.338 580.196 218.43 602.092 209.185" stroke="black" stroke-width="5" stroke-linecap="round"/>
<path d="M581.12 321.705C577.471 330.22 580.754 344.452 586.593 347.858" stroke="black" stroke-width="5" stroke-linecap="round"/>
<path d="M603.916 327.179C609.238 324.222 620.31 320.115 636.012 323.803C636.9 324.012 637.703 324.478 638.333 325.138C646.594 333.775 660.153 350.058 655.006 353.332C649.654 356.739 639.801 344.209 637.368 339.952" stroke="black" stroke-width="5" stroke-linecap="round"/>
<path d="M644.667 349.074C648.316 354.548 648.316 360.022 643.45 361.847C638.585 363.672 632.502 352.115 630.678 347.25" stroke="black" stroke-width="5" stroke-linecap="round"/>
<path d="M638.585 360.631C637.774 363.088 633.004 367.268 627.637 361.847C623.987 358.162 622.771 355.765 620.946 352.115" stroke="black" stroke-width="5" stroke-linecap="round"/>
<path d="M602.092 349.074H454.248C451.558 349.074 449.357 351.226 449.948 353.85C451.386 360.244 456.091 369.085 467.822 371.488C468.125 371.55 468.44 371.578 468.749 371.578H496.736C499.498 371.578 501.736 373.817 501.736 376.578V746.104C501.736 748.866 503.975 751.104 506.736 751.104H736.507" stroke="black" stroke-width="5" stroke-linecap="round"/>
<path d="M499.303 369.146V389.825L821.657 379.19V369.146H499.303Z" fill="black"/>
<path d="M818.616 478.624V375.806C818.616 373.11 820.755 370.899 823.45 370.809L836.863 370.362C847.485 370.362 853.562 365.724 855.256 354.83C855.69 352.036 853.375 349.683 850.548 349.683H656.831" stroke="black" stroke-width="5" stroke-linecap="round"/>
<path d="M626.42 361.847C624.19 365.699 616.567 368.659 603.916 349.683" stroke="black" stroke-width="5" stroke-linecap="round"/>
<path d="M636.76 303.458C664.13 273.656 717.166 173.057 712.787 6.64941" stroke="black" stroke-width="5" stroke-linecap="round"/>
<circle cx="717.044" cy="164.786" r="15.7464" stroke="black" stroke-width="5"/>
<path d="M712.787 181.207L736.507 299.809C738.535 310.149 735.656 331.558 707.921 334.477H657.439C655.412 334.275 651.357 334.842 651.357 338.735" stroke="black" stroke-width="5" stroke-linecap="round"/>
<path d="M720.085 347.858C733.466 344.614 758.646 329.612 752.321 295.552C745.995 261.492 732.655 202.697 726.776 177.558" stroke="black" stroke-width="5" stroke-linecap="round"/>
<path d="M743.02 772.222L720.473 673.13C720.301 672.377 721.026 671.725 721.765 671.954C786.33 691.934 836.563 681.07 855.658 672.333C856.423 671.983 857.277 672.655 857.1 673.477L835.816 772.211C835.717 772.671 835.31 773 834.839 773H743.996C743.529 773 743.124 772.677 743.02 772.222Z" stroke="black" stroke-width="5" stroke-linecap="round"/>
<path d="M838.872 449.24C776.179 524.689 770.784 632.619 776.461 680.24C776.57 681.16 777.291 681.838 778.213 681.926C789.856 683.031 811.962 683.673 819.91 678.489C820.265 678.258 820.512 677.882 820.636 677.476C871.026 511.812 845.481 481.579 842.591 450.499C842.42 448.658 840.053 447.819 838.872 449.24Z" fill="black"/>
<path d="M900.885 506.49C903.036 562.075 856.635 637.491 828.776 675.608C827.413 677.472 824.54 675.868 825.317 673.694C843.52 622.794 854.222 562.833 855.093 542.278C855.105 542.001 855.169 541.752 855.294 541.504C863.165 525.797 885.607 511.354 898.095 504.88C899.35 504.229 900.83 505.077 900.885 506.49Z" fill="black"/>
<path d="M755.362 429.359C782.61 456.12 793.882 496.465 796.112 513.293C772.27 572.168 770.77 649.735 773 681.16C769.594 681.16 764.688 679.943 762.66 679.335C717.409 582.021 738.94 472.137 755.362 429.359Z" fill="black"/>
<path d="M719.134 589.928C721.08 642.964 713.598 658.453 722.518 674.469C716.679 674.469 729.677 699.812 724 697.582C651.501 622.163 638.242 536.405 640.674 502.953C669.869 513.657 705.145 565.396 719.134 589.928Z" fill="black" fill-opacity="0.3"/>
<path d="M732.249 566.207C734.196 619.243 752.523 664.535 761.444 680.552C755.605 680.552 742.792 676.091 737.115 673.861C664.616 598.443 651.357 512.684 653.79 479.232C682.984 489.937 718.261 541.676 732.249 566.207Z" fill="black"/>
</svg>
