<svg width="846" height="503" viewBox="0 0 846 503" fill="none" xmlns="http://www.w3.org/2000/svg">
<path d="M843.751 481.61C856.281 448.496 803.716 457.042 801.896 457.952L799.166 481.61C683.426 501.264 579.879 489.799 542.573 481.609V430.655L446.123 481.609C382.066 485.977 346 463.999 330.566 455.222L339.665 425.195L210.458 476.15L168.603 447.943C146.462 454.009 93.9904 468.689 61.2339 478.88C28.4773 489.071 38.4863 493.438 47.5853 494.348C307.818 500.717 831.013 515.276 843.751 481.61Z" fill="black"/>
<path d="M716.366 124.928C719.399 137.06 718.186 160.414 689.069 156.774C659.952 153.135 672.691 102.18 699.078 108.549" stroke="black" stroke-width="5" stroke-linecap="round"/>
<path d="M592.618 45.7658C637.81 50.3153 739.84 55.4108 786.427 39.3965" stroke="black" stroke-width="5" stroke-linecap="round"/>
<path d="M806.445 20.2882L799.194 486.151C799.178 487.186 798.42 488.034 797.388 488.109C735.806 492.582 602.511 497.204 544.041 481.112C543.155 480.869 542.596 480.055 542.63 479.137L559.789 9.52115C559.829 8.42793 560.694 7.56877 561.788 7.59213C602.855 8.46936 704.595 8.73157 799.166 3" stroke="black" stroke-width="5" stroke-linecap="round"/>
<path d="M596.258 456.132C631.137 456.435 708.54 455.586 739.113 449.763" stroke="black" stroke-width="5" stroke-linecap="round"/>
<path d="M378.79 445.213C384.25 447.336 398.262 452.674 410.637 457.042" stroke="black" stroke-width="5" stroke-linecap="round"/>
<path d="M482.52 73.0625C489.496 76.7021 505.267 82.8895 512.546 78.5219" stroke="black" stroke-width="5" stroke-linecap="round"/>
<path d="M471.254 25.0453L558.23 54.5649C560.228 55.2428 559.92 58.0161 557.816 58.1688C511.057 61.5649 476.908 38.3037 469.425 27.0536C468.57 25.7692 469.793 24.5495 471.254 25.0453Z" fill="black"/>
<path d="M551.672 95.8104L445.213 479.79C404.45 487.069 352.403 466.445 331.475 455.222C345.306 401.356 429.138 140.699 467.961 21.1982L555.312 51.2251" stroke="black" stroke-width="5" stroke-linecap="round"/>
<path d="M408.817 159.503L362.259 122.608C361.356 121.892 360.035 122.087 359.376 123.033L155.864 415.186" stroke="black" stroke-width="5" stroke-linecap="round"/>
<path d="M147.675 429.745L212.278 476.15L412.457 169.513" stroke="black" stroke-width="5" stroke-linecap="round"/>
<path d="M11.1891 452.493C16.5262 461.388 30.211 478.979 43.0628 479.763C43.625 479.797 44.1617 479.553 44.5408 479.136L309.089 188.404C309.875 187.54 309.762 186.195 308.851 185.464C301.936 179.917 289.228 168.664 281.043 157.823C280.284 156.819 278.802 156.71 277.932 157.62L3 445.214" stroke="black" stroke-width="5" stroke-linecap="round"/>
<circle cx="33.0263" cy="447.943" r="3.63962" fill="black"/>
<circle cx="189.53" cy="440.664" r="3.63962" fill="black"/>
<circle cx="371.511" cy="162.233" r="3.63962" fill="black"/>
<circle cx="282.34" cy="182.251" r="3.63962" fill="black"/>
<path d="M279.611 157.684L344.215 141.306" stroke="black" stroke-width="5" stroke-linecap="round"/>
<path d="M361.502 123.107L442.484 97.6299" stroke="black" stroke-width="5" stroke-linecap="round"/>
</svg>
