<svg width="801" height="503" viewBox="0 0 801 503" fill="none" xmlns="http://www.w3.org/2000/svg">
<path d="M516.116 136.386H459.697L457.035 161.494H517.713L516.116 136.386Z" fill="black"/>
<path d="M521.072 183.463H454.925L451.804 210.663H522.944L521.072 183.463Z" fill="black"/>
<path d="M524.981 233.68H449.107L445.528 262.972H527.128L524.981 233.68Z" fill="black"/>
<path d="M529.324 287.033H441.31L437.158 317.372H514.951L531.313 309.003L529.324 287.033Z" fill="black"/>
<path d="M431.927 361.835L462.266 115.463M515.621 115.463L531.313 306.388" stroke="black" stroke-width="5" stroke-linecap="round"/>
<path d="M452.328 115.463H528.175" stroke="black" stroke-width="5" stroke-linecap="round"/>
<path d="M452.328 68.3857H528.175" stroke="black" stroke-width="5" stroke-linecap="round"/>
<path d="M463.312 79.8936V99.7707" stroke="black" stroke-width="5" stroke-linecap="round"/>
<path d="M514.574 79.8936V99.7707" stroke="black" stroke-width="5" stroke-linecap="round"/>
<circle cx="490.513" cy="89.309" r="9.41548" fill="black"/>
<rect x="481.097" y="50.6006" width="18.831" height="9.41548" rx="4.70774" fill="black"/>
<path d="M406.296 64.7237L203.34 3" stroke="black" stroke-width="5" stroke-linecap="round"/>
<path d="M397.404 93.4936L23.4002 78.3242" stroke="black" stroke-width="5" stroke-linecap="round"/>
<path d="M392.173 113.894L3 233.156" stroke="black" stroke-width="5" stroke-linecap="round"/>
<path d="M412.573 144.755L104.478 364.449" stroke="black" stroke-width="5" stroke-linecap="round"/>
<path d="M210.14 448.883C229.57 442.951 374.479 402.706 426.241 367.154" stroke="black" stroke-width="5" stroke-linecap="round"/>
<path d="M347.683 443.499C373.18 402.606 404.66 375.296 467.689 342.634C546.476 301.806 564.475 294.64 598.175 244.281" stroke="black" stroke-width="5" stroke-linecap="round"/>
<path d="M598.176 244.282C605.268 258.292 623.302 294.107 636.46 313.27M622.281 306.025C635.616 311.182 663.804 328.145 669.866 354.74C675.929 381.336 700.465 400.426 710.372 411.797" stroke="black" stroke-width="5" stroke-linecap="round"/>
<path d="M625.809 352.595C635.293 367.235 653.049 385.912 708.996 409.177" stroke="black" stroke-width="5" stroke-linecap="round"/>
<path d="M782.476 493.415C765.959 473.223 727.601 427.719 706.311 407.244" stroke="black" stroke-width="5" stroke-linecap="round"/>
<path d="M598.176 244.282C593.339 263.836 584.851 307.826 596.956 332.655" stroke="black" stroke-width="5" stroke-linecap="round"/>
<path d="M589.605 313.929C578.985 319.581 565.447 340.299 597.321 384.265" stroke="black" stroke-width="5" stroke-linecap="round"/>
<path d="M565.064 392.849C573.637 393.74 592.028 393.47 597.01 385.265" stroke="black" stroke-width="5" stroke-linecap="round"/>
<path d="M576.632 475.342L565.064 392.85" stroke="black" stroke-width="5" stroke-linecap="round"/>
</svg>
