<svg width="1467" height="1393" viewBox="0 0 1467 1393" fill="none" xmlns="http://www.w3.org/2000/svg">
<path d="M62.9636 639.179C71.1639 639.179 77.8116 632.532 77.8116 624.331C77.8116 616.131 71.1639 609.483 62.9636 609.483C54.7633 609.483 48.1156 616.131 48.1156 624.331C48.1156 632.532 54.7633 639.179 62.9636 639.179Z" stroke="black" stroke-width="5"/>
<path d="M92.0588 625.843C122.008 622.761 169 626.406 174.555 649.573C180.109 672.739 158.899 681.212 147.601 682.552C104.583 689.389 47.5439 686.172 47.5439 649.573" stroke="black" stroke-width="5" stroke-linecap="round"/>
<path d="M81.238 660.88C83.1304 660.88 84.6645 659.346 84.6645 657.454C84.6645 655.561 83.1304 654.027 81.238 654.027C79.3457 654.027 77.8116 655.561 77.8116 657.454C77.8116 659.346 79.3457 660.88 81.238 660.88Z" stroke="black" stroke-width="5"/>
<path d="M114.36 657.454C114.36 659.118 112.81 660.88 110.363 660.88C107.916 660.88 106.365 659.118 106.365 657.454C106.365 655.79 107.916 654.027 110.363 654.027C112.81 654.027 114.36 655.79 114.36 657.454Z" stroke="black" stroke-width="5"/>
<path d="M139.488 660.88C141.38 660.88 142.914 659.346 142.914 657.454C142.914 655.561 141.38 654.027 139.488 654.027C137.595 654.027 136.061 655.561 136.061 657.454C136.061 659.346 137.595 660.88 139.488 660.88Z" stroke="black" stroke-width="5"/>
<path d="M1189.7 221.151C1197.27 221.151 1203.4 215.015 1203.4 207.446C1203.4 199.876 1197.27 193.74 1189.7 193.74C1182.13 193.74 1175.99 199.876 1175.99 207.446C1175.99 215.015 1182.13 221.151 1189.7 221.151Z" stroke="black" stroke-width="5"/>
<path d="M1216.62 195.453C1226.67 195.453 1255.37 195.453 1268.87 195.453C1279.8 195.453 1285.06 197.872 1285.06 214.803C1285.06 231.253 1284.93 252.563 1285.06 261.163C1285.16 267.21 1282.15 273.901 1272.11 274.869C1262.06 275.836 1221.75 275.272 1202.85 274.869C1195.83 274.869 1183.42 270.89 1183.42 254.712V236.571" stroke="black" stroke-width="5" stroke-linecap="round"/>
<path d="M1209.68 224.006L1234.81 241.139" stroke="black" stroke-width="5" stroke-linecap="round"/>
<path d="M1234.81 241.139L1280.5 198.879" stroke="black" stroke-width="5" stroke-linecap="round"/>
<path d="M1246.39 230.859L1258.88 243.423L1271.36 255.987" stroke="black" stroke-width="5" stroke-linecap="round"/>
<path d="M1200.55 255.987L1218.97 230.859" stroke="black" stroke-width="5" stroke-linecap="round"/>
<path d="M1290.14 1077.74C1286.34 1081.55 1283.07 1084.82 1280.82 1087.08C1274.94 1092.96 1268.77 1089.53 1266.42 1087.08L1228.93 1050.96C1223.39 1045.81 1218.71 1040.73 1197.79 1020.77C1195.65 1018.63 1192.26 1013.15 1195.81 1008.4C1199.37 1003.65 1219.37 978.71 1228.93 966.834C1231.82 962.635 1238.12 957.641 1246.16 965.11C1253.08 971.543 1276.8 993.81 1297.06 1010.74" stroke="black" stroke-width="5" stroke-linecap="round"/>
<path d="M1228.53 968.119C1229.71 989.786 1237.66 1024.66 1278.78 1037.79" stroke="black" stroke-width="5" stroke-linecap="round"/>
<path d="M1332.82 1039.47C1330.93 1034.68 1316.46 1029.1 1310.99 1039.47C1305.35 1050.16 1309.66 1059.17 1313.33 1060.94C1318.01 1063.2 1324.89 1064.38 1332.15 1051.39" stroke="black" stroke-width="5" stroke-linecap="round"/>
<path d="M1334.02 1032.8C1333.59 1035.3 1333.16 1036.35 1332.82 1039.47C1332.37 1043.52 1332.09 1047.78 1332.15 1051.39C1332.29 1057.74 1333.55 1062.12 1337.11 1060C1344.26 1055.76 1348.12 1052.29 1349.15 1048.74C1350.86 1042.78 1350.87 1031.36 1341.23 1023.9C1329.61 1014.89 1316.49 1015.13 1306.18 1023.9C1295.94 1032.6 1293.14 1046.53 1293.7 1053.76C1294.31 1061.66 1300.21 1078.64 1319.46 1078.9C1338.71 1079.17 1349.14 1068.79 1350.74 1063.93" stroke="black" stroke-width="5" stroke-linecap="round"/>
<path d="M319.376 896.814C315.27 880.962 301.635 851.727 279.952 861.609C258.269 871.491 270.917 889.196 279.952 896.814C286.032 900.931 299.103 905.337 302.744 890.019C306.385 874.703 291.04 868.403 286.728 875.197C284.454 877.873 281.885 884.585 289.808 890.019" stroke="black" stroke-width="5" stroke-linecap="round"/>
<path d="M412.554 113.373C412.482 112.964 412.909 112.651 413.277 112.841L440.327 126.865C441.934 127.698 443.848 127.687 445.445 126.836L472.333 112.503C472.698 112.308 473.129 112.617 473.061 113.026L468.083 143.086C467.787 144.872 468.389 146.689 469.692 147.945L491.632 169.087C491.93 169.375 491.77 169.88 491.36 169.942L461.233 174.496C459.443 174.766 457.901 175.9 457.109 177.528L443.781 204.927C443.6 205.3 443.07 205.303 442.885 204.933L429.244 177.688C428.433 176.069 426.878 174.953 425.085 174.703L394.909 170.494C394.498 170.437 394.331 169.934 394.627 169.643L416.323 148.25C417.612 146.979 418.193 145.155 417.877 143.373L415.415 143.81L417.877 143.373L412.554 113.373Z" stroke="black" stroke-width="5"/>
<path d="M768.813 639.082V736.165" stroke="black" stroke-width="5" stroke-linecap="round"/>
<path d="M841.911 650.503V743.018" stroke="black" stroke-width="5" stroke-linecap="round"/>
<path d="M670.94 1070.91C646.803 1073.92 590.297 1085 577.92 1107.54C574.207 1114.31 569.899 1130.76 582.375 1142.48C594.853 1154.2 617.653 1151.12 627.493 1148.12L684.865 1125.01" stroke="black" stroke-width="5" stroke-linecap="round"/>
<path d="M999.871 900.819C954.833 902.268 755.914 998.57 662.084 1046.54C654.094 1099.4 687.812 1137.35 705.67 1149.72C799.197 1122.57 991.153 1067.54 1010.77 1064.64C1030.38 1061.75 1049.81 1047.75 1057.08 1041.11C1107.93 981.736 1070.39 931.291 1045.27 913.491C1027.39 900.818 1011.95 900.43 999.871 900.819Z" fill="black"/>
<path d="M577.996 887.349C609.907 889.477 749.112 943.428 815.071 971.704L664.226 1047.08C596.719 1066.88 555.248 1060.36 542.583 1056.09C469.477 1020.87 498.12 933.975 527.166 901.788C545.886 885.855 566.563 886.586 577.996 887.349Z" fill="black"/>
<path d="M933.154 1081.19C953.098 1090.78 963.881 1103.33 969.349 1113.63C981.066 1140.45 960.027 1156.57 936.006 1148.99C922.732 1144.8 919.603 1141.99 912.572 1136.16C909.005 1133.2 892.343 1117.72 873.32 1099.44" stroke="black" stroke-width="5" stroke-linecap="round"/>
<path d="M550.093 622.079L565.561 903.177C565.853 908.479 570.237 912.628 575.546 912.628H1005.52C1011.04 912.628 1015.52 908.151 1015.52 902.628V615.524C1015.52 609.949 1010.96 605.45 1005.38 605.525L559.943 611.53C554.258 611.607 549.78 616.402 550.093 622.079Z" fill="black"/>
<rect x="563.226" y="916.625" width="452.293" height="21.7009" rx="10" fill="black"/>
<path d="M843.053 484.892C882.838 484.321 970.404 514.587 1005.24 609.957" stroke="black" stroke-width="5" stroke-linecap="round"/>
<path d="M755.679 484.32C664.878 502.024 621.476 540.857 587.211 615.668" stroke="black" stroke-width="5" stroke-linecap="round"/>
<path d="M1059.49 574.647L1081.76 537.527" stroke="black" stroke-width="5" stroke-linecap="round"/>
<path d="M1081.76 584.927L1112.03 559.799" stroke="black" stroke-width="5" stroke-linecap="round"/>
<path d="M1086.33 602.059C1092.23 604.343 1105.63 606.514 1112.03 596.919" stroke="black" stroke-width="5" stroke-linecap="round"/>
<path d="M502.121 567.698L467.856 532.291" stroke="black" stroke-width="5" stroke-linecap="round"/>
<path d="M536.956 561.987L516.398 508.876" stroke="black" stroke-width="5" stroke-linecap="round"/>
<path d="M493.555 587.685L467.856 577.977" stroke="black" stroke-width="5" stroke-linecap="round"/>
<path d="M1028.08 674.015C1049.21 707.137 1073.2 746.541 1028.08 820.684" stroke="black" stroke-width="5" stroke-linecap="round"/>
<path d="M843.624 487.747C848.764 472.899 844.082 462.907 839.513 461.003C812.102 486.131 770.527 476.803 755.108 461.574C749.625 466.6 752.823 481.465 755.107 486.033C784.803 518.927 827.063 500.501 843.624 487.747Z" fill="black"/>
<path d="M721.985 579.119L733.072 562.103C740.898 550.09 756.13 545.294 769.427 550.656L797.377 561.926C809.316 566.74 822.996 563.401 831.374 553.626L858.472 522.011" stroke="black" stroke-width="5" stroke-linecap="round"/>
<path d="M543.238 695.048C534.672 715.226 524.507 764.148 552.376 798.413" stroke="black" stroke-width="5" stroke-linecap="round"/>
<path d="M922.368 254.297C909.805 299.412 903.523 303.41 885.248 323.397C885.248 303.644 881.855 270.487 881.855 256.681C822.018 256.681 771.52 232.255 753.75 220.042C754.386 261.46 715.557 288.542 715.557 288.542C715.557 288.542 721.127 305.268 724.309 342.705C726.856 372.654 719.535 366.866 715.557 360.228C704.099 323.27 685.32 333.146 677.363 342.705C579.723 184.055 729.878 153.4 758.523 156.321C780.166 137.841 810.349 123.36 831.567 121.236C908.091 113.576 942.74 181.144 922.368 254.297Z" fill="black"/>
<path d="M716.895 388.466C727.174 451.222 796.169 496.347 845.958 445.511C895.747 394.675 885.783 301.62 880.464 258.198" stroke="black" stroke-width="5" stroke-linecap="round"/>
<path d="M676.235 338.816C669.953 354.235 675.846 388.403 716.895 388.403" stroke="black" stroke-width="5" stroke-linecap="round"/>
<path d="M694.339 347.286C693.43 350.585 694.157 358.403 704.331 363.276" stroke="black" stroke-width="5" stroke-linecap="round"/>
<path d="M879.08 380.408C892.478 374.822 901.923 354.139 898.29 321.016" stroke="black" stroke-width="5" stroke-linecap="round"/>
<path d="M803.698 418.099C816.833 421.526 816.002 412.096 825.97 403.822" stroke="black" stroke-width="5" stroke-linecap="round"/>
<circle cx="842.908" cy="338.319" r="8.56615" fill="black"/>
<circle cx="767.526" cy="339.461" r="8.56615" fill="black"/>
<path d="M748.875 319.874C750.678 314.566 758.456 304.747 775.144 307.932" stroke="black" stroke-width="5" stroke-linecap="round"/>
<path d="M828.826 309.594C832.806 306.147 843.632 301.32 855.095 309.594" stroke="black" stroke-width="5" stroke-linecap="round"/>
<path d="M801.194 333.58C799.863 344.857 798.959 367.727 805.983 368.986" stroke="black" stroke-width="5" stroke-linecap="round"/>
<path d="M1130.3 851.619C1282.78 893.879 1556.67 942.42 1432.4 798.509C1393.19 759.866 1335.32 714.561 1242.24 674.586" stroke="black" stroke-width="5" stroke-linecap="round"/>
<path d="M1295.35 556.359C1390.14 495.634 1542.85 370.188 1395.28 354.198C1247.72 338.208 1112.98 393.602 1064.06 423.298" stroke="black" stroke-width="5" stroke-linecap="round"/>
<path d="M928.144 467.62C990.962 332.275 1092.61 51.7622 996.673 12.4722C876.747 -36.6404 721.414 104.987 594.635 443.064" stroke="black" stroke-width="5" stroke-linecap="round"/>
<path d="M454.927 351.029C314.442 274.124 27.6473 155.835 4.3474 297.919C-18.9525 440.003 265.71 558.52 410.954 600.018" stroke="black" stroke-width="5" stroke-linecap="round"/>
<path d="M448.247 674.586C243.23 779.093 -13.652 923.627 128.637 998.957C186.886 1029.8 335.938 1010.95 404.467 982.967" stroke="black" stroke-width="5" stroke-linecap="round"/>
<ellipse cx="783.661" cy="1358.74" rx="282.683" ry="34.2646" fill="black"/>
</svg>
