<svg width="588" height="503" viewBox="0 0 588 503" fill="none" xmlns="http://www.w3.org/2000/svg">
<path d="M133.673 316.755L109.606 222.558L422.738 142.554L427.329 160.522" stroke="black" stroke-width="3"/>
<path d="M145.091 361.443L163.414 433.159L170.175 431.431" stroke="black" stroke-width="3"/>
<path d="M279.574 419.56L292.802 416.343" stroke="black" stroke-width="3" stroke-linecap="round"/>
<path d="M313.895 411.337L423.115 385.026" stroke="black" stroke-width="3" stroke-linecap="round"/>
<path d="M271.709 421.348L173.162 444.5L150.87 350.918" stroke="black" stroke-width="3" stroke-linecap="round"/>
<path d="M142.992 318.027L122.725 233.066L437.094 158.074L467.133 283.997" stroke="black" stroke-width="3" stroke-linecap="round"/>
<path d="M45.7924 194.532C42.6566 195.205 39.6636 196.191 36.8334 197.427L38.3528 204.511C34.5808 206.324 31.1964 208.662 28.2448 211.469L22.1619 207.535C19.9594 209.787 18.0412 212.286 16.3369 214.921C14.6326 217.556 13.1398 220.331 11.9892 223.263L18.072 227.197C16.7225 231.041 15.9787 235.086 15.8717 239.27L8.78817 240.789C8.82155 243.878 9.14988 247.012 9.82252 250.147C10.4952 253.283 11.4811 256.276 12.7172 259.106L19.8007 257.587C21.6143 261.359 23.9518 264.743 26.7588 267.695L22.8246 273.778C25.0767 275.98 27.5761 277.899 30.2112 279.603C32.8463 281.307 35.6209 282.8 38.5532 283.951L42.4874 277.868C46.3306 279.217 50.376 279.961 54.56 280.068L56.0794 287.152C59.1676 287.118 62.3016 286.79 65.4374 286.117C68.5732 285.445 71.5662 284.459 74.3964 283.223L72.8769 276.139C76.649 274.325 80.0334 271.988 82.985 269.181L89.0679 273.115C91.2704 270.863 93.1886 268.364 94.8929 265.729C96.5972 263.093 98.09 260.319 99.2406 257.387L93.1578 253.452C94.5073 249.609 95.251 245.564 95.3581 241.38L102.442 239.86C102.408 236.772 102.08 233.638 101.407 230.502C100.735 227.366 99.7487 224.374 98.5126 221.543L91.4291 223.063C89.6154 219.291 87.278 215.906 84.471 212.955L88.4052 206.872C86.1532 204.669 83.6537 202.751 81.0186 201.047C78.3835 199.343 75.6089 197.85 72.6766 196.699L68.7424 202.782C64.8991 201.432 60.8538 200.689 56.6698 200.582L55.1504 193.498C52.0622 193.531 48.9282 193.86 45.7924 194.532ZM50.7036 217.429C63.3423 214.718 75.8001 222.775 78.5111 235.414C81.2221 248.052 73.1648 260.51 60.5262 263.221C47.8875 265.932 35.4297 257.875 32.7187 245.236C30.0077 232.597 38.0649 220.14 50.7036 217.429Z" fill="black"/>
<path d="M228.153 254.567C225.033 255.312 222.063 256.366 219.262 257.666L220.943 264.713C217.214 266.612 213.884 269.027 210.997 271.901L204.826 268.106C202.675 270.408 200.815 272.951 199.171 275.624C197.528 278.298 196.099 281.106 195.015 284.064L201.187 287.858C199.925 291.731 199.274 295.792 199.263 299.977L192.216 301.658C192.32 304.745 192.72 307.871 193.464 310.99C194.208 314.11 195.262 317.08 196.563 319.881L203.61 318.2C205.509 321.929 207.923 325.259 210.797 328.146L207.003 334.317C209.305 336.468 211.848 338.328 214.521 339.972C217.194 341.615 220.002 343.044 222.96 344.128L226.754 337.956C230.627 339.218 234.689 339.869 238.874 339.88L240.555 346.927C243.642 346.823 246.767 346.423 249.887 345.679C253.007 344.935 255.976 343.881 258.777 342.58L257.096 335.533C260.826 333.634 264.156 331.22 267.043 328.346L273.214 332.14C275.364 329.838 277.225 327.295 278.869 324.622C280.512 321.949 281.941 319.141 283.024 316.183L276.853 312.389C278.114 308.516 278.765 304.454 278.777 300.269L285.824 298.588C285.72 295.501 285.32 292.376 284.576 289.256C283.831 286.136 282.777 283.167 281.477 280.366L274.43 282.047C272.53 278.317 270.116 274.987 267.242 272.1L271.037 265.929C268.735 263.779 266.192 261.918 263.519 260.274C260.845 258.631 258.037 257.202 255.079 256.119L251.285 262.29C247.412 261.029 243.351 260.378 239.166 260.366L237.485 253.319C234.398 253.423 231.272 253.823 228.153 254.567V254.567ZM233.586 277.345C246.16 274.346 258.798 282.116 261.798 294.69C264.797 307.263 257.027 319.902 244.453 322.901C231.88 325.9 219.241 318.13 216.242 305.557C213.243 292.983 221.013 280.345 233.586 277.345Z" stroke="black" stroke-width="5" stroke-linecap="round" stroke-linejoin="round"/>
<path d="M253.186 358.708C251.685 359.066 250.257 359.573 248.91 360.198L249.718 363.587C247.925 364.501 246.323 365.662 244.935 367.044L241.967 365.219C240.933 366.326 240.038 367.549 239.248 368.835C238.457 370.12 237.77 371.471 237.249 372.893L240.217 374.718C239.611 376.58 239.298 378.533 239.292 380.546L235.903 381.355C235.953 382.839 236.145 384.342 236.503 385.843C236.861 387.343 237.368 388.771 237.994 390.118L241.383 389.31C242.296 391.103 243.457 392.705 244.839 394.093L243.014 397.061C244.121 398.095 245.344 398.99 246.63 399.78C247.916 400.571 249.266 401.258 250.689 401.779L252.513 398.811C254.376 399.418 256.329 399.731 258.342 399.736L259.15 403.125C260.635 403.075 262.138 402.883 263.638 402.525C265.138 402.167 266.566 401.66 267.914 401.035L267.105 397.646C268.899 396.732 270.5 395.571 271.888 394.189L274.856 396.014C275.89 394.907 276.785 393.684 277.576 392.398C278.366 391.113 279.053 389.762 279.574 388.34L276.606 386.515C277.213 384.652 277.526 382.699 277.532 380.686L280.921 379.878C280.871 378.394 280.678 376.89 280.32 375.39C279.962 373.89 279.455 372.462 278.83 371.115L275.441 371.923C274.528 370.129 273.367 368.528 271.985 367.14L273.809 364.172C272.702 363.138 271.479 362.243 270.194 361.452C268.908 360.662 267.558 359.975 266.135 359.454L264.31 362.422C262.448 361.815 260.495 361.502 258.482 361.497L257.673 358.108C256.189 358.158 254.686 358.35 253.186 358.708V358.708ZM255.799 369.662C261.845 368.22 267.924 371.957 269.366 378.003C270.808 384.05 267.072 390.128 261.025 391.571C254.978 393.013 248.9 389.276 247.458 383.229C246.015 377.183 249.752 371.105 255.799 369.662Z" stroke="black" stroke-opacity="0.7" stroke-width="3" stroke-linecap="round" stroke-linejoin="round"/>
<path d="M425.779 349.17L441.364 312.946C455.871 279.228 496.918 266.231 528.188 285.456C559.513 304.714 566.403 347.31 542.748 375.462L517.381 405.653C500.044 426.285 470.213 431.111 447.255 416.997C424.251 402.854 415.107 373.975 425.779 349.17Z" stroke="black" stroke-width="5"/>
<path d="M435.338 330.513L441.549 315.015C455.193 280.971 496.206 267.417 527.449 286.625C558.756 305.872 565.124 348.705 540.771 376.227L529.707 388.731C511.593 409.204 481.385 413.695 458.098 399.378C434.755 385.027 425.145 355.948 435.338 330.513Z" fill="black"/>
<circle cx="238.981" cy="299.792" r="10.7979" transform="rotate(-13.417 238.981 299.792)" stroke="black" stroke-width="2"/>
<circle cx="238.981" cy="299.791" r="15.803" transform="rotate(-13.417 238.981 299.791)" stroke="black" stroke-width="2"/>
<path d="M222.157 227.724L265.626 409.947" stroke="black" stroke-width="2" stroke-linecap="round" stroke-dasharray="12 12"/>
<path d="M300.449 204.636L331.309 334.001" stroke="black" stroke-width="2" stroke-linecap="round" stroke-dasharray="12 12"/>
<path d="M347.858 196.833L383.031 344.28" stroke="black" stroke-width="2" stroke-linecap="round" stroke-dasharray="12 12"/>
<path d="M399.352 200.156L427.391 317.697" stroke="black" stroke-width="2" stroke-linecap="round" stroke-dasharray="12 12"/>
<path d="M214.311 392.049L299.858 371.642" stroke="black" stroke-width="2" stroke-linecap="round" stroke-dasharray="12 12"/>
<path d="M169.861 316.647L432.763 253.933" stroke="black" stroke-width="2" stroke-linecap="round" stroke-dasharray="12 12"/>
<path d="M216.468 401.091L225.509 398.934" stroke="black" stroke-width="3" stroke-linecap="round"/>
<path d="M313.934 369.019L373.748 354.751" stroke="black" stroke-width="3" stroke-linecap="round"/>
<path d="M315.925 377.365L370.87 364.258" stroke="black" stroke-width="3" stroke-linecap="round"/>
<path d="M317.086 382.234L346.993 375.1" stroke="black" stroke-width="3" stroke-linecap="round"/>
<path d="M217.629 405.959L236.407 401.479" stroke="black" stroke-width="3" stroke-linecap="round"/>
<path d="M324.771 256.98L334.833 240.613" stroke="black" stroke-opacity="0.6" stroke-width="3" stroke-linecap="round"/>
<path d="M319.529 284.62L357.13 223.459" stroke="black" stroke-opacity="0.6" stroke-width="3" stroke-linecap="round"/>
<path d="M328.675 288.857L340.888 268.982M364.841 230.37L352.317 250.401" stroke="black" stroke-opacity="0.6" stroke-width="3" stroke-linecap="round"/>
<path d="M335.525 296.828L344.904 281.573M375.774 231.36L366.617 246.255" stroke="black" stroke-opacity="0.6" stroke-width="3" stroke-linecap="round"/>
<path d="M339.374 309.68L352.027 289.099M388.08 230.013L376.282 249.677" stroke="black" stroke-opacity="0.6" stroke-width="3" stroke-linecap="round"/>
<path d="M351.609 308.893L361.058 293.525M393.085 241.811L384.147 255.754" stroke="black" stroke-opacity="0.6" stroke-width="3" stroke-linecap="round"/>
<path d="M362.785 309.828L372.626 293.624M398.447 251.107L388.079 268.625" stroke="black" stroke-opacity="0.6" stroke-width="3" stroke-linecap="round"/>
<path d="M370.783 315.933L408.458 253.967" stroke="black" stroke-opacity="0.6" stroke-width="3" stroke-linecap="round"/>
<path d="M392.021 300.501L403.452 281.852" stroke="black" stroke-opacity="0.6" stroke-width="3" stroke-linecap="round"/>
<path d="M353.582 224.74C350.462 225.484 347.492 226.538 344.691 227.839L346.372 234.885C342.643 236.785 339.312 239.199 336.426 242.073L330.255 238.279C328.104 240.581 326.244 243.123 324.6 245.797C322.956 248.47 321.527 251.278 320.444 254.236L326.615 258.03C325.354 261.903 324.703 265.964 324.692 270.15L317.645 271.831C317.749 274.917 318.149 278.043 318.893 281.163C319.637 284.282 320.691 287.252 321.992 290.053L329.039 288.372C330.938 292.102 333.352 295.432 336.226 298.318L332.432 304.49C334.734 306.64 337.277 308.501 339.95 310.144C342.623 311.788 345.431 313.217 348.389 314.3L352.183 308.129C356.056 309.39 360.118 310.041 364.303 310.052L365.984 317.099C369.071 316.995 372.196 316.595 375.316 315.851C378.436 315.107 381.405 314.053 384.206 312.752L382.525 305.706C386.255 303.806 389.585 301.392 392.472 298.518L398.643 302.312C400.793 300.01 402.654 297.468 404.297 294.794C405.941 292.121 407.37 289.313 408.453 286.355L402.282 282.561C403.543 278.688 404.194 274.627 404.206 270.441L411.253 268.76C411.149 265.674 410.749 262.548 410.004 259.428C409.26 256.309 408.206 253.339 406.906 250.538L399.859 252.219C397.959 248.489 395.545 245.159 392.671 242.273L396.465 236.101C394.164 233.951 391.621 232.09 388.948 230.447C386.274 228.803 383.466 227.374 380.508 226.291L376.714 232.462C372.841 231.201 368.78 230.55 364.594 230.539L362.913 223.492C359.827 223.596 356.701 223.996 353.582 224.74V224.74ZM359.015 247.518C371.588 244.518 384.227 252.289 387.227 264.862C390.226 277.435 382.456 290.074 369.882 293.073C357.309 296.073 344.67 288.302 341.671 275.729C338.671 263.156 346.442 250.517 359.015 247.518Z" stroke="black" stroke-width="5" stroke-linecap="round" stroke-linejoin="round"/>
<path d="M156.046 271.059L260.72 246.089" stroke="black" stroke-width="3" stroke-linecap="round"/>
<path d="M217.159 353.145L281.841 337.715" stroke="black" stroke-width="3" stroke-linecap="round"/>
<path d="M301.663 332.987L407.033 307.851" stroke="black" stroke-width="3" stroke-linecap="round"/>
<path d="M323.05 231.589L387.037 216.326" stroke="black" stroke-width="3" stroke-linecap="round"/>
<path d="M326.39 430.81C323.53 427.592 320.313 422.944 319.598 417.939C319.106 414.495 315.427 412.1 313.162 412.219" stroke="black" stroke-width="5" stroke-linecap="round"/>
<path d="M313.52 417.94C313.52 415.318 313.734 410.146 307.442 410.432" stroke="black" stroke-width="5" stroke-linecap="round"/>
<path d="M308.872 415.437C307.919 412.696 305.219 407.5 300.357 410.074" stroke="black" stroke-width="5" stroke-linecap="round"/>
<path d="M304.94 418.655C303.39 417.701 301.365 413.792 299.935 408.644C298.505 403.496 290.997 399.111 287.422 397.561C285.515 396.727 281.701 396.274 281.701 401.136C281.701 405.427 292.212 409.145 292.784 415.437C293.356 421.729 293.023 424.494 292.784 425.09C292.188 426.281 290.067 427.735 286.349 424.017C282.631 420.299 277.769 419.37 275.266 420.085C273.121 420.8 270.118 423.231 275.266 427.235C279.091 430.21 291.64 435.744 302.795 449.758" stroke="black" stroke-width="5" stroke-linecap="round"/>
<path d="M424.962 486.447C395.789 458.704 354.89 433.503 337.307 433.503C305.241 433.503 305.951 449.222 310.387 457.267C310.458 457.395 310.538 457.506 310.636 457.614C319.662 467.583 341.395 489.758 357.327 500" stroke="black" stroke-width="5" stroke-linecap="round"/>
<path d="M32.891 479.154C39.7552 469.43 57.6785 442.511 65.4245 429.46C70.7293 420.522 74.7069 410.585 76.1499 403.829C79.0099 390.44 87.2328 366.291 112.258 399.539C118.178 407.405 123.938 414.587 99.9845 461.064" stroke="black" stroke-width="5" stroke-linecap="round"/>
<path d="M121.98 392.1C127.212 385.661 136.669 375.6 140.492 368.557L146.73 357.893C150.956 351.104 152.765 345.569 154.379 342.568C155.097 341.235 155.544 340.222 156.538 338.239C157.44 336.44 158.234 334.623 157.604 333.133C157.122 331.991 155.11 329.993 150.921 331.134C146.732 332.274 143.875 335.812 142.97 337.438C142.064 338.786 138.13 343.669 137.052 344.74C134.548 347.23 122.213 357.556 114.52 351.506" stroke="black" stroke-width="5" stroke-linecap="round"/>
<path d="M113.023 341.507C119.409 338.131 131.814 332.045 136.135 327.866C140.573 327.006 151.533 328.442 150.427 322.557C150.197 321.331 146.338 318.29 140.602 317.258C136.474 316.515 133.48 316.226 130.051 318.068C128.107 319.113 127.336 319.484 124.826 321.151C122.877 322.01 121.69 323.002 120.099 324.096C118.465 325.219 116.097 327.006 112.786 330.13" stroke="black" stroke-width="5" stroke-linecap="round"/>
<path d="M124.825 321.151C123.784 320.585 119.283 320.621 113.977 323.249C108.181 326.12 107.191 327.207 104.946 328.688C102.702 330.169 98.2128 333.131 96.4555 334.56C93.3462 337.088 90.5127 339.937 89.3941 341.375C87.4245 344.416 88.5221 346.718 91.4825 352.381" stroke="black" stroke-width="5" stroke-linecap="round"/>
<path d="M93.2573 362.897C93.2573 366.667 92.4009 375.601 89.7851 383.046" stroke="black" stroke-width="5" stroke-linecap="round"/>
<path d="M145.148 334.561L94.6643 362.145C88.5648 364.531 84.322 356.17 90.7218 353.348L112.988 341.476M152.171 330.629L161.507 325.581L157.086 318.511L150.765 321.704" stroke="black" stroke-width="5" stroke-linecap="round"/>
<path d="M162.766 324.896L168.03 317.105" stroke="black" stroke-width="5" stroke-linecap="round"/>
<path d="M158.34 317.853L168.03 317.105" stroke="black" stroke-width="5" stroke-linecap="round"/>
<path d="M182.428 168.87C183.461 179.641 168.163 181.725 167.503 169.4L166.006 72.5131L165.485 47.0258C165.462 45.9054 166.364 44.9849 167.485 44.9849L179.744 44.9849M182.428 168.87L180.664 72.514L179.744 44.9849M182.428 168.87L201.446 168.87C202.589 168.87 203.499 167.915 203.444 166.774L198.897 72.514L197.708 46.8922C197.659 45.8248 196.779 44.9849 195.71 44.9849L179.744 44.9849" stroke="black" stroke-width="5" stroke-linecap="round"/>
<rect x="200.404" y="84.2154" width="161.6" height="100.108" rx="7.5" transform="rotate(-30 200.404 84.2154)" stroke="black" stroke-width="5"/>
<ellipse cx="220.74" cy="89.4029" rx="3.93263" ry="4.29014" transform="rotate(-30 220.74 89.4029)" fill="black"/>
<path d="M349.755 93.3516L372.047 80.4812M361.102 95.0569L375.623 86.6734" stroke="black" stroke-width="5" stroke-linecap="round"/>
<path d="M247.381 130.436C252.022 127.162 265.142 123.424 281.444 133.633C282.145 134.072 283.07 133.548 283.029 132.722C282.058 112.874 283.167 92.0934 323.358 92.7626C324.394 92.7798 324.877 91.3017 324.05 90.6756C313.097 82.3799 300.218 64.1414 316.221 41.5476C316.77 40.7722 316.066 39.6865 315.143 39.9117L310.758 40.9812C309.716 41.2354 309.131 39.9876 310.025 39.3948C315.875 35.5161 323.522 31.867 322.684 36.8991C321.623 43.2619 322.325 46.4929 325.79 50.496" stroke="black" stroke-width="5" stroke-linecap="round"/>
</svg>
