<svg width="480" height="506" viewBox="0 0 480 506" fill="none" xmlns="http://www.w3.org/2000/svg">
<path d="M26.7639 407.895C31.6312 394.152 29.5749 381.963 26.7638 365.308C23.25 344.489 17.3937 297.746 47.0659 267.893C70.8037 244.011 97.821 231.756 108.362 228.613" stroke="black" stroke-width="5" stroke-linecap="round"/>
<path d="M86.6027 407.323C88.3001 401.376 104.988 375.52 102.867 358.077C102.103 353.115 102.638 341.7 113.174 335.745" stroke="black" stroke-width="5" stroke-linecap="round"/>
<path d="M77.0986 290.508C85.1153 277.338 106.875 260.159 124.054 257.296C141.232 254.433 142.751 266.112 140.536 271.07C137.214 278.507 129.983 286.727 115.52 302.384C101.193 317.896 93.3705 346.617 92.4585 360.317" stroke="black" stroke-width="5" stroke-linecap="round"/>
<path d="M360.997 244.159C349.864 234.605 322.176 217.695 300.487 226.49C298.522 227.276 294.436 230.967 293.807 239.448" stroke="black" stroke-width="5" stroke-linecap="round"/>
<path d="M337.642 326.583C315.882 301.96 303.284 282.491 306.147 257.868C307.743 244.144 315.647 238.485 322.883 245.337C332.488 254.432 339.932 265.885 350.388 270.467C352.438 271.421 358.943 273.329 368.563 273.329" stroke="black" stroke-width="5" stroke-linecap="round"/>
<path d="M417.578 381.585C416.53 377.397 414.356 363.995 415.613 353.315C417.185 339.965 415.762 289.575 393.759 275.047" stroke="black" stroke-width="5" stroke-linecap="round"/>
<path d="M414.372 248.706L278.801 238.944C278.578 238.928 278.343 238.952 278.128 239.011C257.445 244.701 266.348 256.139 273.618 262.077C273.919 262.323 274.286 262.468 274.674 262.503L305.575 265.312" stroke="black" stroke-width="5" stroke-linecap="round"/>
<path d="M413.8 276.192L368.544 273.226" stroke="black" stroke-width="5" stroke-linecap="round"/>
<ellipse cx="413.57" cy="262.398" rx="12.0251" ry="16.606" fill="black"/>
<path d="M398.424 273.562C390.02 261.95 396.404 252.706 401.176 249.097C401.523 248.835 401.954 248.717 402.389 248.737L416.387 249.388C417.489 249.439 418.341 250.373 418.292 251.475L417.286 274.068C417.234 275.219 416.223 276.089 415.077 275.968L399.794 274.347C399.25 274.289 398.745 274.006 398.424 273.562Z" fill="black"/>
<path d="M256.612 246.343L264.272 243.912C265.653 243.474 267.026 244.603 266.864 246.042L266.135 252.524C265.973 253.962 264.387 254.757 263.138 254.027L256.207 249.976C254.711 249.102 254.959 246.867 256.612 246.343Z" fill="black"/>
<path d="M112.701 259.586L107.217 108.341C107.217 86.0195 111.369 48.1907 157.748 48.8173C204.128 49.4438 229.302 49.0783 236.091 48.8173" stroke="black" stroke-width="5" stroke-linecap="round"/>
<path d="M289.365 48.8174H367.316C388.86 49.209 407.271 58.6075 407.271 94.6354C407.271 130.663 406.205 205.979 404.638 245.27" stroke="black" stroke-width="5" stroke-linecap="round"/>
<path d="M339.359 431.945C307.239 434.294 221.337 440.554 169.5 442.773C147.564 442.773 118.498 439.954 115.051 400.48L112.701 306.103" stroke="black" stroke-width="5" stroke-linecap="round"/>
<circle cx="262.398" cy="31.0589" r="15.2513" stroke="black" stroke-width="5"/>
<path d="M238.11 40.7508C240.92 48.8799 236.939 54.8202 227.962 56.7744C223.669 57.709 217.658 57.7905 206.105 61.8549C191.664 66.9355 188.932 81.3959 188.541 93.9021C188.229 103.907 194.006 107.19 204.153 107.581C233.686 107.451 296.941 108.362 313.828 108.362C331.391 108.362 333.946 101.718 334.514 97.4195C337.324 76.1589 329.83 67.6358 323.195 64.5907C320.073 63.1577 310.94 59.5882 299.387 56.7744C287.834 53.9606 285.753 50.1304 286.897 44.6589C289.707 31.2147 288.068 20.2979 286.897 16.52C285.596 11.3091 277.998 1.35623 258.015 3.23217C233.036 5.57708 234.597 30.5895 238.11 40.7508Z" stroke="black" stroke-width="5" stroke-linecap="round"/>
<path d="M374.862 242.407L376.349 97.5343C376.349 94.4067 374.578 88.9336 367.356 88.9336C359.927 88.9336 343.244 89.1942 335.684 88.9336" stroke="black" stroke-width="5" stroke-linecap="round"/>
<path d="M186.708 88.9341H150.734C146.824 88.5432 139.317 90.8107 140.568 103.008C141.819 115.205 147.867 304.341 150.734 397.385C150.604 402.076 152.69 411.302 162.074 410.677C169.213 410.201 280.31 403.945 346.803 401.024" stroke="black" stroke-width="5" stroke-linecap="round"/>
<path d="M385.742 244.126L387.802 100.223C387.802 95.9142 385.925 89.6468 375.289 91.2136" stroke="black" stroke-width="5" stroke-linecap="round"/>
<path d="M143.793 90.0381C139.883 90.038 130.889 90.0381 131.28 100.222C131.655 110.01 135.19 210.239 136.363 256.722" stroke="black" stroke-width="5" stroke-linecap="round"/>
<path d="M136.363 279.236L139.883 401.451C140.274 405.76 141.838 412.028 160.608 410.461" stroke="black" stroke-width="5" stroke-linecap="round"/>
<path d="M181.658 156.463H254.954" stroke="black" stroke-width="5" stroke-linecap="round"/>
<path d="M182.149 182.466L340.39 181.682" stroke="black" stroke-width="5" stroke-linecap="round"/>
<path d="M182.54 208.708L306.705 207.533" stroke="black" stroke-width="5" stroke-linecap="round"/>
<path d="M183.733 249.467L244.818 246.702" stroke="black" stroke-width="5" stroke-linecap="round"/>
<path d="M390.323 246.988C387.46 252.333 381.161 259.586 388.032 273.329" stroke="black" stroke-width="5" stroke-linecap="round"/>
<path d="M299.276 310.66C295.458 315.204 293.321 328.186 315.309 343.761C326.189 350.823 348.75 372.278 351.957 401.596" stroke="black" stroke-width="5" stroke-linecap="round"/>
<path d="M293.549 264.739C291.503 268.576 290.605 275.959 296.985 283.032C300.128 286.516 305.038 289.925 312.446 292.798" stroke="black" stroke-width="5" stroke-linecap="round"/>
<path d="M296.985 283.032C292.892 288.953 289.16 301.095 299.276 310.661C301.896 313.138 310.598 317.733 315.309 319.711" stroke="black" stroke-width="5" stroke-linecap="round"/>
<path d="M376.504 501.813C364.288 473.373 347.186 411.797 376.504 393.015C413.152 369.538 460.679 422.791 477.286 468.601" stroke="black" stroke-width="5" stroke-linecap="round"/>
<path d="M3 479.473C5.86311 452.75 25.7903 398.21 59.6896 405.082C93.5888 411.953 102.827 473.224 103.209 503" stroke="black" stroke-width="5" stroke-linecap="round"/>
</svg>
