<svg width="1054" height="773" viewBox="0 0 1054 773" fill="none" xmlns="http://www.w3.org/2000/svg">
<path d="M807.094 720.831C775.087 694.751 818.455 691.689 844.14 693.418V710.459L905.635 726.018C886.124 735.156 839.101 746.911 807.094 720.831Z" fill="black"/>
<path d="M975.281 705.273C954.535 707.644 948.361 698.358 947.867 693.418H992.321C995.285 696.382 996.026 702.902 975.281 705.273Z" fill="black"/>
<path d="M928.604 633.405C905.636 633.405 893.04 631.923 874.518 630.441" stroke="black" stroke-width="5" stroke-linecap="round"/>
<path d="M946.385 642.296V713.423" stroke="black" stroke-width="5" stroke-linecap="round"/>
<path d="M893.04 646L844.141 642.296" stroke="black" stroke-width="5" stroke-linecap="round"/>
<path d="M916.008 653.409V725.277" stroke="black" stroke-width="5" stroke-linecap="round"/>
<path d="M915.267 726.759L946.385 714.164" stroke="black" stroke-width="5" stroke-linecap="round"/>
<path d="M873.777 630.441L844.141 642.296" stroke="black" stroke-width="5" stroke-linecap="round"/>
<path d="M843.4 643.037V711.2" stroke="black" stroke-width="5" stroke-linecap="round"/>
<path d="M842.659 710.459L915.267 726.759" stroke="black" stroke-width="5" stroke-linecap="round"/>
<path d="M928.604 634.887V614.142" stroke="black" stroke-width="5" stroke-linecap="round"/>
<path d="M993.062 692.677V620.81" stroke="black" stroke-width="5" stroke-linecap="round"/>
<path d="M1027.88 597.101V677.118" stroke="black" stroke-width="5" stroke-linecap="round"/>
<path d="M993.062 694.159L1027.88 677.118" stroke="black" stroke-width="5" stroke-linecap="round"/>
<path d="M1027.88 596.36L949.349 593.396" stroke="black" stroke-width="5" stroke-linecap="round"/>
<path d="M928.604 614.142L949.349 593.396" stroke="black" stroke-width="5" stroke-linecap="round"/>
<path d="M993.062 620.069L1027.14 597.842" stroke="black" stroke-width="5" stroke-linecap="round"/>
<path d="M993.062 692.677H949.349" stroke="black" stroke-width="5" stroke-linecap="round"/>
<path d="M929.344 614.142L971.576 615.623" stroke="black" stroke-width="5" stroke-linecap="round"/>
<path d="M337.312 752.018C338.053 731.273 421.034 737.941 426.22 738.682V752.018L451.411 769.799C413.131 770.788 336.719 768.615 337.312 752.018Z" fill="black"/>
<path d="M543.283 749.795V674.223" stroke="black" stroke-width="5" stroke-linecap="round"/>
<path d="M478.824 769.059V686.077" stroke="black" stroke-width="5" stroke-linecap="round"/>
<path d="M425.479 749.795V666.814" stroke="black" stroke-width="5" stroke-linecap="round"/>
<path d="M425.479 666.814L484.01 651.996" stroke="black" stroke-width="5" stroke-linecap="round"/>
<path d="M543.283 673.482L478.824 685.336" stroke="black" stroke-width="5" stroke-linecap="round"/>
<path d="M478.824 769.8L543.283 750.536" stroke="black" stroke-width="5" stroke-linecap="round"/>
<path d="M543.283 673.482L484.01 651.996" stroke="black" stroke-width="5" stroke-linecap="round"/>
<path d="M425.479 667.555L479.565 685.336" stroke="black" stroke-width="5" stroke-linecap="round"/>
<path d="M615.514 748.313C601.881 724.604 645.397 721.146 668.859 722.381V739.422L745.172 748.313C707.633 758.191 629.146 772.022 615.514 748.313Z" fill="black"/>
<path d="M782.957 716.455L754.061 746.091" stroke="black" stroke-width="5" stroke-linecap="round"/>
<path d="M747.393 655.7L672.562 650.514" stroke="black" stroke-width="5" stroke-linecap="round"/>
<path d="M702.939 631.25L782.957 634.955" stroke="black" stroke-width="5" stroke-linecap="round"/>
<path d="M671.08 650.514L667.375 736.459" stroke="black" stroke-width="5" stroke-linecap="round"/>
<path d="M782.957 636.437V714.973" stroke="black" stroke-width="5" stroke-linecap="round"/>
<path d="M754.061 683.114V746.091" stroke="black" stroke-width="5" stroke-linecap="round"/>
<path d="M671.08 650.514L702.939 631.25" stroke="black" stroke-width="5" stroke-linecap="round"/>
<path d="M754.061 746.091L666.635 737.2" stroke="black" stroke-width="5" stroke-linecap="round"/>
<path d="M600.063 193.026C603.274 192.038 611.77 191.1 620.068 195.249" stroke="black" stroke-width="5" stroke-linecap="round"/>
<path d="M570.427 231.553C576.156 231.553 580.8 226.578 580.8 220.44C580.8 214.302 576.156 209.326 570.427 209.326C564.698 209.326 560.054 214.302 560.054 220.44C560.054 226.578 564.698 231.553 570.427 231.553Z" fill="black"/>
<path d="M654.89 246.372C660.619 246.372 665.263 241.396 665.263 235.258C665.263 229.12 660.619 224.144 654.89 224.144C649.162 224.144 644.518 229.12 644.518 235.258C644.518 241.396 649.162 246.372 654.89 246.372Z" fill="black"/>
<path d="M545.236 202.658C545.977 197.965 550.571 189.025 563.018 190.804" stroke="black" stroke-width="5" stroke-linecap="round"/>
<path d="M640.072 201.176C645.999 195.99 660.817 188.729 672.672 201.176" stroke="black" stroke-width="5" stroke-linecap="round"/>
<path d="M608.213 213.772C615.129 225.133 624.809 249.483 608.213 256.003L600.063 258.967" stroke="black" stroke-width="5" stroke-linecap="round"/>
<path d="M580.059 281.935C581.788 286.628 588.357 294.382 600.804 287.862" stroke="black" stroke-width="5" stroke-linecap="round"/>
<path d="M341.487 173.022C317.185 253.04 384.705 311.078 421.505 330.094C454.697 309.941 502.016 299.716 522.268 296.753C497.077 276.008 489.42 237.974 487.445 220.44C474.109 224.885 438.545 207.844 454.845 173.022C467.885 145.164 482.011 159.438 487.445 170.058L523.749 186.358C523.749 152.573 546.963 141.163 558.572 139.681C565.685 134.939 573.39 119.429 576.354 112.268C579.91 140.126 616.362 160.426 634.144 167.095C657.26 148.72 675.881 159.438 682.303 167.095L698.603 164.872C730.462 154.006 787.659 116.861 761.58 55.2181C735.5 -6.42515 681.562 4.83659 657.853 18.1729C576.65 -35.765 495.1 43.1161 464.477 89.2997C433.605 83.8659 365.789 93.0042 341.487 173.022Z" fill="black"/>
<path d="M523.009 187.099L487.446 168.577" stroke="black" stroke-width="5" stroke-linecap="round"/>
<path d="M599.322 185.617C599.322 211.171 581.858 230.812 561.536 230.812C541.215 230.812 523.75 211.171 523.75 185.617C523.75 160.062 541.215 140.422 561.536 140.422C581.858 140.422 599.322 160.062 599.322 185.617Z" stroke="black" stroke-width="5"/>
<path d="M697.122 201.917C697.122 227.471 679.657 247.112 659.336 247.112C639.014 247.112 621.549 227.471 621.549 201.917C621.549 176.362 639.014 156.722 659.336 156.722C679.657 156.722 697.122 176.362 697.122 201.917Z" stroke="black" stroke-width="5"/>
<path d="M698.603 344.741C755.505 299.102 723.053 237.558 699.344 212.12C686.304 273.763 656.126 300.287 643.036 306.214L663.781 317.328L698.603 344.741Z" fill="black"/>
<path d="M491.891 185.617C490.657 172.034 474.851 139.681 457.81 170.058C450.401 183.888 445.066 213.475 483.001 221.181" stroke="black" stroke-width="5" stroke-linecap="round"/>
<path d="M479.296 180.431C475.839 183.395 470.701 191.1 477.814 198.213" stroke="black" stroke-width="5" stroke-linecap="round"/>
<path d="M694.16 218.958C690.011 242.667 680.822 264.143 671.19 277.489C665.168 285.835 655.41 296.369 642.969 305.552" stroke="black" stroke-width="5" stroke-linecap="round"/>
<path d="M486.705 221.181C486.212 251.31 497.968 296.012 551.906 319.721C560.203 323.368 568.36 325.46 576.288 326.303" stroke="black" stroke-width="5" stroke-linecap="round"/>
<path d="M637.85 356.025C625.995 353.062 614.636 362.693 610.436 367.88C608.213 372.573 607.176 381.809 620.809 381.216C637.85 380.475 643.036 356.025 663.04 395.293C679.044 426.708 680.081 488.4 678.599 515.32" stroke="black" stroke-width="5" stroke-linecap="round" stroke-linejoin="round"/>
<path d="M599.065 347.875C595.199 356.273 592.061 372.029 610.435 367.88" stroke="black" stroke-width="5" stroke-linecap="round" stroke-linejoin="round"/>
<path d="M606.216 318.98C595.843 323.426 580.8 339.429 586.727 350.098C587.468 351.332 589.691 353.654 592.654 353.062C593.953 352.802 596.069 350.543 599.066 347.875C604.626 342.928 613.22 336.578 625.254 338.985" stroke="black" stroke-width="5" stroke-linecap="round" stroke-linejoin="round"/>
<path d="M813.549 573.392C820.958 537.087 813.74 451.898 723.053 370.103L663.04 317.498L625.254 297.494L617.847 296.012L589.692 302.68L586.727 305.644L577.095 323.426C575.613 327.13 581.987 331.427 592.656 327.871" stroke="black" stroke-width="5" stroke-linecap="round" stroke-linejoin="round"/>
<path d="M520.047 299.717C471.888 306.137 346.868 333.743 271.103 445.675C199.698 551.165 280.456 595.619 340.469 597.842" stroke="black" stroke-width="5" stroke-linecap="round" stroke-linejoin="round"/>
<path d="M3 612.66L337.147 596.36" stroke="black" stroke-width="5" stroke-linecap="round" stroke-linejoin="round"/>
<path d="M428.279 592.655L1050.86 565.531" stroke="black" stroke-width="5" stroke-linecap="round"/>
<path d="M372.778 598.98C373.694 601.82 373.02 603.862 369.452 604.169C358.891 605.074 346.349 588.703 341.399 580.405" stroke="black" stroke-width="5" stroke-linecap="round"/>
<path d="M372.752 566.826C378.023 575.247 387.215 588.223 395.273 595.585C394.538 601.242 389.009 609.843 372.779 598.979C370.307 591.313 356.251 577.836 356.251 577.01" stroke="black" stroke-width="5" stroke-linecap="round"/>
<path d="M387.053 558.906C397.136 570.032 415.435 593.872 407.955 600.208C406.629 601.331 404.938 601.439 403.004 600.781C400.702 599.998 398.055 598.126 395.272 595.585C387.214 588.223 378.023 575.247 372.752 566.826" stroke="black" stroke-width="5" stroke-linecap="round"/>
<path d="M304.165 587.904C321.032 566.781 374.952 520.996 405.754 548.721C418.039 560.98 433.349 583.137 424.548 592.19C420.147 595.585 410.622 591.058 404.479 582.005" stroke="black" stroke-width="5" stroke-linecap="round"/>
<path d="M364.255 467.442C353.635 475.84 336.99 497.671 355.364 517.824" stroke="black" stroke-width="5" stroke-linecap="round"/>
</svg>
